<svg xmlns="http://www.w3.org/2000/svg" viewBox="0 0 100 100" width="100" height="100" fill="none">
  <defs>
    <linearGradient id="sproutGradPrimary" x1="0%" y1="100%" x2="100%" y2="0%">
      <stop offset="0%" stop-color="#15803d" />
      <stop offset="50%" stop-color="#10b981" />
      <stop offset="100%" stop-color="#a3e635" />
    </linearGradient>
    <linearGradient id="sproutGradSecondary" x1="0%" y1="100%" x2="100%" y2="0%">
      <stop offset="0%" stop-color="#166534" />
      <stop offset="50%" stop-color="#059669" />
      <stop offset="100%" stop-color="#84cc16" />
    </linearGradient>
  </defs>

  <!-- Left Main Leaf -->
  <path d="M 50 88 C 49 70, 46 52, 34 38 C 22 24, 25 10, 36 12 C 50 14, 55 36, 52 58 C 50 72, 50 80, 50 88 Z" 
        fill="url(#sproutGradPrimary)" />

  <!-- Right Ascending Leaf -->
  <path d="M 50 58 C 56 42, 68 25, 80 27 C 86 28, 85 40, 74 50 C 64 60, 54 60, 50 58 Z" 
        fill="url(#sproutGradSecondary)" />

  <!-- Central Stem Vein Accent -->
  <path d="M 50 88 C 50 70, 49 48, 44 34" 
        stroke="#dcfce7" stroke-width="2.5" stroke-linecap="round" stroke-opacity="0.8" />
</svg>